<svg version="1.1" id="Layer_1" xmlns="http://www.w3.org/2000/svg" xmlns:xlink="http://www.w3.org/1999/xlink" x="0px" y="0px"
	 width="100%" viewBox="0 0 1024 1024" enable-background="new 0 0 1024 1024" xml:space="preserve">
<path fill="#000000" opacity="1.000000" stroke="none" 
	d="
M438.304688,781.646729 
	C385.995178,699.175049 334.073853,616.898254 284.430786,533.190369 
	C265.152161,500.682892 252.620224,466.193909 247.951462,428.903412 
	C241.752335,379.389679 248.842667,331.669403 269.308624,286.075378 
	C289.363220,241.397644 319.558533,204.989090 359.536804,176.788040 
	C391.023193,154.577209 425.809021,139.784500 463.736847,133.035522 
	C527.720642,121.650093 588.651611,130.974609 645.072754,163.518326 
	C711.452942,201.806366 754.225037,258.641113 772.608276,333.152344 
	C786.527466,389.569397 781.235779,444.879059 759.670471,498.560760 
	C751.897827,517.908630 740.176880,535.338867 729.519714,553.213562 
	C667.141541,657.836731 601.518982,760.433594 535.723816,862.920776 
	C529.153442,873.155273 522.570618,883.381775 515.974854,893.599915 
	C515.266418,894.697388 514.431458,895.713257 512.757812,897.985229 
	C487.736145,858.879272 463.123291,820.412292 438.304688,781.646729 
M478.413208,283.997894 
	C421.685150,301.838348 387.509583,358.452057 398.234680,416.817963 
	C412.707611,495.579498 500.858337,536.676697 570.474915,497.118896 
	C637.806763,458.859375 650.459412,367.329346 595.266418,313.007721 
	C562.636902,280.893341 523.271484,272.037750 478.413208,283.997894 
z"/>
</svg>