<svg version="1.1" id="Layer_1" xmlns="http://www.w3.org/2000/svg" xmlns:xlink="http://www.w3.org/1999/xlink" x="0px" y="0px"
	 width="100%" viewBox="0 0 1024 1024" enable-background="new 0 0 1024 1024" xml:space="preserve">
<path fill="#000000" opacity="1.000000" stroke="none" 
	d="
M405.936646,834.992126 
	C398.218994,823.406189 394.665802,810.982300 394.783203,797.422913 
	C394.892853,784.758362 394.629608,772.088806 394.879395,759.428284 
	C394.961365,755.273682 393.610687,752.995483 389.718048,751.598877 
	C383.923645,749.520020 378.212585,747.172485 372.595398,744.651184 
	C369.750244,743.374207 367.693665,743.643616 365.477722,745.859924 
	C356.290192,755.049133 346.591675,763.759766 337.809509,773.315796 
	C314.120422,799.092285 272.041656,800.832092 246.020813,773.620483 
	C232.434845,759.412903 218.242798,745.785461 204.350937,731.869568 
	C180.666901,708.144775 179.960968,670.188232 203.006058,645.677734 
	C212.587952,635.486511 222.625412,625.715210 232.658478,615.961487 
	C235.759750,612.946533 236.461899,610.157410 234.622971,606.234924 
	C232.151108,600.962463 229.848984,595.579895 227.947540,590.080872 
	C226.617767,586.235168 224.388550,585.147888 220.494461,585.205322 
	C206.831818,585.406860 193.164139,585.322510 179.498688,585.266968 
	C145.545486,585.128967 117.879044,557.487122 117.712814,523.455872 
	C117.612686,502.957855 117.614090,482.458618 117.711319,461.960602 
	C117.875519,427.340485 145.544144,399.791931 180.129776,399.714661 
	C193.628693,399.684509 207.129364,399.592926 220.625717,399.781036 
	C224.338699,399.832764 226.477615,398.663391 227.800537,395.143799 
	C230.026245,389.222443 232.491333,383.382568 235.085541,377.611694 
	C236.441605,374.595123 236.035477,372.515228 233.595856,370.135956 
	C223.934082,360.713257 214.468658,351.088593 204.965683,341.503876 
	C180.048416,316.372284 179.725769,278.348053 204.412888,253.095139 
	C218.623581,238.558762 233.001160,224.178421 247.562332,209.993423 
	C273.213623,185.004868 311.408325,185.464691 336.764343,210.807358 
	C346.074799,220.112915 355.540985,229.264984 364.732910,238.685349 
	C367.356781,241.374390 369.686798,241.908829 373.058411,240.355667 
	C378.802948,237.709381 384.652802,235.270142 390.557159,233.000961 
	C393.666260,231.806061 394.865417,229.951431 394.829956,226.619461 
	C394.688110,213.288727 394.695923,199.955399 394.765625,186.623627 
	C394.931274,154.945984 415.751587,129.970200 446.767883,124.255249 
	C449.367737,123.776207 452.065643,123.669250 454.718567,123.663651 
	C476.216888,123.618263 497.715424,123.599411 519.213745,123.647545 
	C553.569458,123.724472 580.729004,150.687668 581.091309,185.133987 
	C581.233215,198.631577 581.260376,212.133606 581.063782,225.629578 
	C581.003906,229.739685 582.333374,232.069839 586.275696,233.466736 
	C591.920044,235.466766 597.517639,237.699799 602.886597,240.339066 
	C606.228149,241.981720 608.333008,241.264648 610.761597,238.829391 
	C621.115234,228.447266 631.155151,217.692719 642.124695,207.996262 
	C668.166382,184.976959 703.851624,186.106812 728.755676,210.377869 
	C743.668701,224.911804 758.765137,239.304733 772.921631,254.556946 
	C795.812012,279.218994 795.784668,316.834747 770.885376,341.499146 
	C761.299561,350.994415 751.901550,360.679871 742.269836,370.127747 
	C739.706543,372.642151 739.471985,374.810913 741.004150,378.007660 
	C743.518921,383.254486 745.749695,388.674530 747.604309,394.188385 
	C748.980408,398.279724 751.106506,399.895599 755.562378,399.799652 
	C768.721924,399.516205 781.891541,399.687805 795.057251,399.704224 
	C830.652283,399.748535 858.203491,427.184052 858.271362,462.679291 
	C858.309570,482.677673 858.332458,502.676270 858.286011,522.674622 
	C858.205200,557.469849 830.418640,585.232239 795.685486,585.275330 
	C782.019836,585.292297 768.353088,585.383972 754.689270,585.226562 
	C751.137634,585.185669 749.290649,586.385376 748.063782,589.772034 
	C745.854553,595.870728 743.292297,601.855835 740.581726,607.752441 
	C739.238037,610.675537 739.788086,612.615723 742.006958,614.783997 
	C751.539978,624.099731 760.910889,633.581177 770.397827,642.944397 
	C796.126953,668.338135 796.298462,707.315491 770.696716,732.800232 
	C756.411377,747.020325 742.096375,761.211792 727.679443,775.298157 
	C702.869812,799.538940 664.809387,799.564514 639.955872,775.349915 
	C630.288269,765.930725 620.740784,756.382751 611.348938,746.689514 
	C608.441772,743.689087 605.805237,743.243774 602.111450,744.987854 
	C597.000244,747.401245 591.732117,749.514526 586.426880,751.473938 
	C582.679199,752.858154 580.939941,754.948669 581.011475,759.205261 
	C581.241272,772.866760 581.334473,786.540527 581.024597,800.199219 
	C580.159424,838.332092 548.096252,862.076721 519.343933,861.637146 
	C498.872040,861.324097 478.373108,861.656677 457.882782,861.581177 
	C435.973816,861.500427 419.071472,852.545410 405.936646,834.992126 
M270.826202,275.342590 
	C265.204651,281.026764 259.525238,286.655212 253.979752,292.412628 
	C249.479309,297.085114 249.493439,297.210541 254.203720,301.960815 
	C268.394043,316.271606 282.631317,330.535828 296.853546,344.815002 
	C308.257355,356.264526 310.407440,369.975800 302.294159,383.992798 
	C292.209869,401.414825 284.823212,419.872925 279.380371,439.198914 
	C275.339661,453.546478 263.597412,462.292969 248.691315,462.318848 
	C228.028427,462.354736 207.364471,462.446136 186.703232,462.260437 
	C181.902985,462.217255 180.216888,463.895386 180.271591,468.650238 
	C180.453705,484.478577 180.324982,500.310303 180.342636,516.140747 
	C180.349899,522.651550 180.381424,522.673340 187.132416,522.676941 
	C207.962021,522.688232 228.791855,522.624695 249.621170,522.701355 
	C263.352600,522.751831 275.639709,532.041138 279.253693,545.289490 
	C284.584320,564.830872 292.211029,583.361206 302.253723,600.970703 
	C310.398438,615.252319 308.406891,628.454224 296.850677,640.110168 
	C282.772766,654.309509 268.571869,668.387268 254.528488,682.620483 
	C249.936447,687.274597 250.001556,688.724670 254.635025,693.388123 
	C265.671051,704.495483 276.933899,715.380615 287.828735,726.623291 
	C291.201935,730.104309 293.208405,729.447510 296.258179,726.349609 
	C310.398712,711.985779 324.733856,697.813477 339.010071,683.583435 
	C350.978912,671.653198 365.359100,669.763733 379.991943,678.125305 
	C393.627808,685.916992 407.826508,692.439087 422.904358,696.947937 
	C427.686035,698.377869 432.567871,699.530151 437.243530,701.246399 
	C450.479065,706.104309 457.883118,717.846008 457.955658,733.992065 
	C458.043274,753.487976 457.975067,772.984619 457.995758,792.480896 
	C458.002472,798.820557 458.188416,799.012146 464.383423,799.020264 
	C480.047211,799.040710 495.711121,799.042053 511.374908,799.023560 
	C517.843811,799.015869 518.049072,798.832458 518.048279,792.205688 
	C518.045898,772.709717 517.924194,753.213562 517.983032,733.717834 
	C518.032898,717.196045 525.856567,704.886658 539.863647,700.960144 
	C560.356812,695.215393 579.781738,687.229370 598.361023,676.840698 
	C611.337402,669.584778 625.828857,672.512512 636.305420,683.072083 
	C650.852905,697.734802 665.640869,712.159302 680.154602,726.854980 
	C683.147217,729.885132 685.026733,729.594421 687.845520,726.716736 
	C699.036621,715.291870 710.444885,704.079956 721.737610,692.754150 
	C726.351379,688.126892 726.389771,688.008057 721.711609,683.293274 
	C707.627930,669.099182 693.430115,655.018127 679.366516,640.804260 
	C667.378906,628.688660 665.581360,614.475403 674.125732,599.815552 
	C683.829041,583.167114 691.129822,565.554199 695.994202,546.900879 
	C699.877136,532.010986 712.072754,522.699829 727.498596,522.672974 
	C747.994873,522.637207 768.491272,522.672302 788.987610,522.664429 
	C794.753296,522.662170 795.752258,521.833740 795.430725,516.032959 
	C794.590515,500.875488 795.360474,485.713867 795.083923,470.556641 
	C794.934937,462.389771 794.970032,462.336609 786.561951,462.336395 
	C766.898865,462.335907 747.235657,462.378082 727.572754,462.326721 
	C711.934509,462.285858 699.987732,453.301971 696.061829,438.193634 
	C691.080994,419.025452 683.248291,401.100708 673.522583,383.924042 
	C665.728210,370.158478 667.754150,355.813782 678.936829,344.627197 
	C693.189758,330.369232 707.452087,316.120575 721.677795,301.835449 
	C726.458252,297.034973 726.461670,296.940643 721.532227,292.005157 
	C710.463562,280.923035 699.215942,270.015991 688.315308,258.771942 
	C684.921509,255.271225 682.673401,255.421082 679.382080,258.750824 
	C664.978455,273.322693 650.398376,287.720184 635.874023,302.172638 
	C624.834106,313.157928 611.126160,315.417816 597.499939,307.783630 
	C579.523682,297.712311 560.724487,289.878662 540.843689,284.421875 
	C529.120422,281.204132 521.706970,273.198242 519.115784,261.259216 
	C518.207214,257.072876 518.109009,252.656418 518.082275,248.342316 
	C517.966797,229.680374 517.902649,211.016342 518.081116,192.355576 
	C518.126465,187.609909 516.483093,185.873764 511.727325,185.928574 
	C496.065857,186.109085 480.400879,185.979263 464.737274,185.987152 
	C458.598969,185.990250 457.618408,187.190735 457.668274,193.358398 
	C457.827332,213.018082 458.084076,232.680862 457.888214,252.338318 
	C457.723846,268.834381 448.677277,280.982819 434.104584,284.805298 
	C415.143890,289.778748 397.183502,297.079834 380.195435,306.873016 
	C364.973267,315.648224 351.323181,313.720306 338.871796,301.316071 
	C324.705902,287.203857 310.408813,273.218658 296.482147,258.873993 
	C292.824341,255.106400 290.435059,255.472641 287.182281,258.878662 
	C282.005280,264.299622 276.619141,269.520874 270.826202,275.342590 
z"/>
<path fill="#000000" opacity="1.000000" stroke="none" 
	d="
M641.173828,513.738953 
	C637.707275,536.008667 630.777222,556.616821 618.403748,574.991882 
	C587.618896,620.708435 544.865356,646.014282 489.387360,646.182556 
	C425.679932,646.375732 379.062683,616.443726 349.394897,560.583496 
	C335.294952,534.035278 331.318787,505.177155 334.474091,475.246796 
	C341.430939,409.255646 391.607574,354.723022 457.271179,341.392914 
	C537.594788,325.086761 617.044678,374.771301 637.527588,453.902710 
	C642.604004,473.514465 643.388733,493.285156 641.173828,513.738953 
M518.373108,406.186707 
	C492.915222,397.485229 468.205139,399.357117 444.459747,411.901459 
	C408.880585,430.697388 389.770081,470.223419 397.843201,509.933228 
	C408.035980,560.069458 453.212891,590.635803 503.571075,582.774780 
	C553.274780,575.015930 588.355530,525.010681 578.220337,475.750275 
	C571.271118,441.974731 551.264832,418.909393 518.373108,406.186707 
z"/>
</svg>