<svg version="1.1" id="Layer_1" xmlns="http://www.w3.org/2000/svg" xmlns:xlink="http://www.w3.org/1999/xlink" x="0px" y="0px"
	 width="100%" viewBox="0 0 1024 1024" enable-background="new 0 0 1024 1024" xml:space="preserve">
<path fill="#000000" opacity="1.000000" stroke="none" 
	d="
M684.398132,798.411133 
	C679.423706,803.080505 673.646057,804.027771 667.470642,804.024292 
	C578.306580,803.973999 489.142548,803.957153 399.978516,803.944824 
	C352.146606,803.938171 304.314667,803.949341 256.482758,803.971802 
	C251.605026,803.974121 246.777222,803.741638 242.463074,801.143677 
	C235.955551,797.225098 232.600235,791.531921 232.620087,783.805725 
	C232.682129,759.639954 232.645294,735.473877 232.645096,711.307922 
	C232.643860,555.979187 232.761917,400.650146 232.452347,245.322006 
	C232.421951,230.071503 241.811874,221.942993 255.808090,221.958740 
	C392.803864,222.112839 529.799866,222.059830 666.795837,222.040024 
	C674.992676,222.038849 682.390564,223.612457 687.280396,231.051849 
	C689.655457,234.665222 690.443420,238.604248 690.435913,242.907761 
	C690.365479,283.406433 690.394104,323.905304 690.377991,364.404114 
	C690.372986,377.077362 682.937683,385.257935 671.345703,385.411774 
	C659.523560,385.568604 651.243958,377.439056 650.842407,364.999146 
	C650.622131,358.172882 650.780334,351.334198 650.779663,344.501099 
	C650.777222,319.001862 650.673035,293.501740 650.877441,268.004150 
	C650.914551,263.366333 649.456787,262.022675 644.906921,262.026276 
	C522.743896,262.123505 400.580841,262.124573 278.417877,262.022491 
	C273.758484,262.018585 272.065094,263.215698 272.068665,268.161926 
	C272.186493,431.323578 272.187347,594.485291 272.088867,757.646973 
	C272.086029,762.354004 273.350952,763.994507 278.245850,763.989502 
	C400.408813,763.865234 522.571899,763.853149 644.734924,763.961182 
	C649.647461,763.965515 650.905090,762.341309 650.878113,757.637634 
	C650.696289,725.972961 650.744019,694.306641 650.781433,662.640991 
	C650.796387,650.007507 657.565369,641.685242 668.578247,640.500366 
	C680.466125,639.221252 690.347107,647.803589 690.366943,659.762756 
	C690.435791,701.261414 690.361084,742.760193 690.404419,784.258972 
	C690.410156,789.757690 688.461548,794.300720 684.398132,798.411133 
z"/>
<path fill="#000000" opacity="1.000000" stroke="none" 
	d="
M346.437256,587.626465 
	C351.702972,553.917358 368.817963,528.170654 395.937347,508.687866 
	C398.684357,506.714386 400.304596,507.818176 402.275024,509.888367 
	C419.323944,527.800171 440.371246,536.571533 464.972809,535.528625 
	C485.872467,534.642761 504.088409,526.693359 518.950073,511.634064 
	C524.123779,506.391510 524.157410,506.444824 529.911743,510.731232 
	C556.330322,530.410645 571.920288,556.612488 577.013306,589.091736 
	C577.630554,593.028076 577.726562,597.043884 578.152893,601.013245 
	C578.551941,604.728088 576.823303,606.237549 573.253906,606.078186 
	C571.923828,606.018738 570.588318,606.089355 569.255249,606.089050 
	C496.935516,606.071411 424.615753,606.054016 352.296021,606.031738 
	C344.882141,606.029480 344.207764,605.259827 345.106506,597.947449 
	C345.511810,594.649536 345.930206,591.353210 346.437256,587.626465 
z"/>
<path fill="#000000" opacity="1.000000" stroke="none" 
	d="
M715.000000,492.969910 
	C733.495056,492.970917 751.490173,492.940887 769.484985,493.005402 
	C772.300598,493.015472 775.165955,493.196899 777.919983,493.743866 
	C787.432373,495.633179 793.358154,503.140839 793.381592,513.030212 
	C793.404541,522.721313 787.284790,530.481445 777.900391,532.345337 
	C775.150269,532.891418 772.281738,533.030884 769.467163,533.033264 
	C731.644348,533.065857 693.821472,533.032776 655.998657,533.051270 
	C653.713440,533.052368 651.344604,532.606018 648.935791,533.852295 
	C648.766052,536.208801 650.745483,537.219849 652.084656,538.483032 
	C662.263672,548.085266 672.696960,557.426147 682.673645,567.232422 
	C693.681396,578.052124 689.703003,595.624390 675.289124,600.392944 
	C667.512268,602.965759 660.531006,601.013367 654.550476,595.404785 
	C633.041687,575.233582 611.518677,555.077576 589.999023,534.917847 
	C587.688965,532.753845 585.323303,530.647583 583.056641,528.439331 
	C573.431641,519.062439 573.220764,506.895294 582.945190,497.648285 
	C599.483398,481.922089 616.252991,466.439270 632.927612,450.856598 
	C640.108826,444.145630 647.267822,437.410645 654.487000,430.740753 
	C663.373047,422.530884 676.033936,422.589600 683.558472,430.811829 
	C691.409790,439.391113 690.404907,451.838654 681.319946,460.238770 
	C671.291626,469.511108 661.352722,478.880402 651.405273,488.239777 
	C650.229431,489.346039 648.762512,490.275818 648.110046,492.969940 
	C670.416199,492.969940 692.458069,492.969940 715.000000,492.969910 
z"/>
<path fill="#000000" opacity="1.000000" stroke="none" 
	d="
M395.971375,464.545349 
	C393.429779,441.001831 399.476318,420.843231 417.062012,405.001068 
	C455.054993,370.774872 515.302185,390.183746 526.285889,440.094604 
	C534.154358,475.849365 511.278839,511.399231 475.478607,519.051880 
	C439.544525,526.733154 404.402100,503.914764 396.699921,467.900726 
	C396.491211,466.924866 396.275055,465.950592 395.971375,464.545349 
z"/>
</svg>