<svg version="1.1" id="Layer_1" xmlns="http://www.w3.org/2000/svg" xmlns:xlink="http://www.w3.org/1999/xlink" x="0px" y="0px"
	 width="100%" viewBox="0 0 512 512" enable-background="new 0 0 512 512" xml:space="preserve">
<path fill="#000000" opacity="1.000000" stroke="none" 
	d="
M1.000000,268.468658 
	C4.030748,249.726410 11.400939,233.228577 23.610126,219.483948 
	C36.437229,205.043762 52.573395,195.239578 71.601852,190.699982 
	C73.051277,190.354202 74.500420,189.823151 75.965454,189.763184 
	C79.588402,189.614853 79.922615,187.583603 79.331673,184.668839 
	C74.025208,158.495209 77.314636,133.223160 90.157410,110.014465 
	C106.743660,80.040794 132.043472,60.634804 166.018143,53.715435 
	C190.847549,48.658604 214.965836,51.509609 237.790009,62.578197 
	C259.612152,73.160835 276.528320,89.104210 287.371704,111.010391 
	C289.117035,114.536339 290.582428,115.018074 294.521973,114.018639 
	C336.806274,103.291458 381.412292,123.951019 397.566406,167.264618 
	C398.572327,169.961761 399.625549,172.238525 403.121796,171.557922 
	C415.539886,169.140549 427.585022,171.895416 439.396088,174.959152 
	C456.602905,179.422531 471.601746,188.450256 484.024597,201.019211 
	C499.706970,216.886032 509.176453,236.213593 512.859436,258.667175 
	C513.000000,268.687561 513.000000,278.375122 512.868774,288.881165 
	C511.340851,297.537048 509.262146,305.186798 506.185364,312.533569 
	C505.164612,314.970947 504.911835,317.289581 505.925781,319.755005 
	C509.399384,328.200775 511.557007,337.004944 513.000000,346.000000 
	C513.000000,355.020905 513.000000,364.041779 512.872192,373.892944 
	C512.037659,381.004669 510.539062,387.141144 508.418152,393.046997 
	C501.533142,412.218445 490.359467,428.377777 474.147430,440.942719 
	C457.109772,454.147552 437.855438,462.155243 416.359406,462.224304 
	C310.398987,462.564484 204.436768,462.295776 98.475632,462.490906 
	C85.155251,462.515442 72.366829,460.758759 60.004803,455.943665 
	C38.558182,447.590027 22.575359,432.999512 11.506553,412.946259 
	C6.168196,403.274811 3.161751,392.770874 1.000000,382.000000 
	C1.000000,371.312439 1.000000,360.624878 1.307914,349.295105 
	C4.117292,341.342041 6.004540,333.818542 9.333099,326.791168 
	C9.970615,325.445190 9.850811,323.875153 9.154517,322.434509 
	C4.948808,313.733002 2.489954,304.509949 1.000000,295.000000 
	C1.000000,286.312439 1.000000,277.624878 1.000000,268.468658 
M250.096420,178.408813 
	C228.989761,160.751282 204.929245,152.921021 177.376175,156.160843 
	C133.432648,161.327927 96.781593,198.005051 95.407249,247.411118 
	C95.104218,258.304840 97.469131,268.860291 100.581818,279.280396 
	C102.481163,285.638672 99.686089,290.170868 93.240204,291.475037 
	C88.857765,292.361694 84.331329,292.525970 79.937775,293.369873 
	C31.386482,302.695282 4.179752,356.822388 26.366371,400.914459 
	C40.877590,429.753052 64.964706,444.014343 97.319046,444.019073 
	C200.952042,444.034149 304.585052,444.021332 408.218048,444.014465 
	C417.231354,444.013855 426.123413,443.240021 434.840332,440.648499 
	C470.712311,429.983948 498.468536,394.679413 494.892944,353.135284 
	C492.286804,322.855225 477.614288,300.124329 451.146576,285.204803 
	C433.814514,275.434906 415.165436,272.883759 395.633270,276.049835 
	C388.733032,277.168365 384.882812,274.739960 382.869324,267.999451 
	C382.393402,266.406219 382.070526,264.767609 381.604706,263.171021 
	C370.696381,225.786087 328.030304,205.099548 291.949799,219.694122 
	C282.405487,223.554794 278.686188,222.120682 274.788574,212.746750 
	C269.319946,199.594498 261.268280,188.323212 250.096420,178.408813 
M409.527008,256.676727 
	C442.951538,256.561584 469.859894,270.480560 492.044647,296.107452 
	C495.019989,285.716492 495.886292,276.334869 494.913849,266.634674 
	C492.013733,237.706573 477.939850,215.823730 453.227570,200.966339 
	C435.270081,190.170074 415.641479,187.201492 394.990204,190.654282 
	C388.605194,191.721817 384.855377,189.219376 382.974548,183.013962 
	C382.492249,181.422684 382.159180,179.786713 381.699158,178.188095 
	C372.944916,147.765793 341.233978,125.844986 309.272095,130.090912 
	C302.431458,130.999634 295.957977,132.873291 289.545807,135.279922 
	C282.910583,137.770279 278.728027,135.947220 275.708679,129.574020 
	C275.067413,128.220444 274.536743,126.814888 273.935394,125.441940 
	C256.503723,85.644035 212.216843,62.736900 169.992386,71.675507 
	C128.037323,80.557076 97.557564,116.366501 95.422394,159.397125 
	C95.045105,167.000626 95.899582,174.500671 97.855896,182.374527 
	C101.482811,179.980499 103.360596,176.957764 105.717453,174.439865 
	C133.801483,144.436844 168.324860,132.117020 208.699646,139.040909 
	C243.619858,145.029373 269.698303,164.579544 286.585632,195.835754 
	C288.893921,200.108109 291.026001,201.181213 295.509033,199.659821 
	C301.349548,197.677734 307.536743,196.991959 313.690918,196.805817 
	C349.201324,195.731689 380.963531,215.920517 395.531586,248.695831 
	C399.146301,256.828278 399.146271,256.828247 408.048706,256.689423 
	C408.215332,256.686829 408.381927,256.685699 409.527008,256.676727 
M72.253433,209.729065 
	C21.655968,226.089432 10.799241,279.694946 23.053001,305.108124 
	C24.953363,304.985077 25.794792,303.364868 26.920853,302.233063 
	C40.321136,288.764679 56.251873,279.786407 74.838104,275.921783 
	C79.697990,274.911224 80.255547,272.546326 79.479294,268.572540 
	C75.827591,249.878693 77.200127,231.504532 83.024696,213.409225 
	C83.603561,211.610840 84.803375,209.817566 83.760521,207.616547 
	C79.973999,207.295624 76.585091,208.959824 72.253433,209.729065 
z"/>
</svg>