<?xml version="1.0" standalone="no"?>
<!DOCTYPE svg PUBLIC "-//W3C//DTD SVG 20010904//EN"
 "http://www.w3.org/TR/2001/REC-SVG-20010904/DTD/svg10.dtd">
<svg version="1.0" xmlns="http://www.w3.org/2000/svg"
 width="512.000000pt" height="512.000000pt" viewBox="0 0 512.000000 512.000000"
 preserveAspectRatio="xMidYMid meet">

<g transform="translate(0.000000,512.000000) scale(0.100000,-0.100000)"
fill="#000000" stroke="none">
<path d="M3665 5105 c-195 -43 -350 -158 -461 -343 -1 -2 -42 19 -91 47 -177
101 -350 149 -564 158 -226 9 -413 -29 -602 -123 -178 -88 -337 -214 -337
-267 0 -35 41 -77 74 -77 14 0 48 19 83 49 207 173 424 258 683 268 210 8 392
-32 566 -126 561 -303 756 -1008 429 -1552 -25 -41 -45 -82 -45 -92 0 -10 14
-32 30 -49 55 -55 102 -23 176 117 l39 75 210 0 c248 0 269 -3 337 -44 74 -44
111 -107 116 -197 4 -59 0 -77 -22 -124 -16 -31 -44 -68 -67 -86 -71 -56 -95
-59 -504 -59 -362 0 -373 -1 -399 -21 -34 -27 -36 -77 -2 -108 l23 -22 410 3
409 3 76 38 c88 43 152 107 195 195 26 52 28 67 28 167 0 100 -2 115 -28 167
-36 74 -103 147 -164 181 -89 48 -148 57 -366 57 -186 0 -199 1 -192 18 16 41
35 145 45 244 10 101 2 271 -16 342 l-6 25 414 3 413 3 56 28 c66 32 132 99
162 165 17 37 22 66 22 137 0 84 -2 94 -34 153 -54 100 -142 159 -263 177 -45
7 -47 8 -67 61 -112 294 -455 478 -766 409z m312 -168 c163 -56 287 -187 337
-356 23 -78 38 -91 105 -91 77 0 125 -15 168 -53 90 -79 82 -218 -18 -284
l-43 -28 -418 -3 -419 -3 -10 31 c-48 137 -157 308 -275 430 l-83 86 40 62
c73 112 209 206 334 231 80 16 200 7 282 -22z"/>
<path d="M1440 4377 c-56 -28 -158 -284 -187 -472 l-15 -102 -197 -6 c-164 -4
-207 -8 -266 -27 -206 -64 -359 -217 -431 -430 -28 -83 -27 -271 3 -365 59
-188 216 -347 413 -417 l65 -23 1106 -3 c1073 -2 1107 -2 1130 16 32 27 32 87
0 113 -22 18 -63 19 -1093 19 -941 0 -1077 2 -1131 16 -86 22 -147 55 -215
118 -245 228 -183 634 120 780 94 45 166 55 398 56 146 0 180 3 199 16 28 20
51 72 51 117 0 109 55 306 121 439 22 43 39 86 39 95 -1 23 -19 46 -47 61 -27
15 -32 15 -63 -1z"/>
<path d="M1252 2157 l-22 -23 0 -666 0 -667 26 -20 c33 -26 65 -27 95 -2 l24
19 0 672 0 672 -24 19 c-32 26 -73 24 -99 -4z"/>
<path d="M1882 2160 c-22 -21 -22 -23 -22 -383 0 -410 0 -407 69 -407 26 0 44
7 57 21 18 20 19 41 19 386 l0 365 -24 19 c-30 25 -72 24 -99 -1z"/>
<path d="M2518 2169 c-10 -5 -22 -26 -28 -47 -13 -48 -14 -934 0 -981 23 -82
117 -82 140 0 14 47 13 933 0 981 -15 53 -66 74 -112 47z"/>
<path d="M3139 2161 l-24 -19 0 -365 c0 -345 1 -366 19 -386 13 -14 31 -21 57
-21 69 0 69 -3 69 407 0 360 0 362 -22 383 -27 25 -69 26 -99 1z"/>
<path d="M3764 2155 l-24 -25 2 -666 3 -666 24 -19 c30 -25 62 -24 95 2 l26
20 0 668 0 668 -23 21 c-31 29 -72 28 -103 -3z"/>
<path d="M2390 832 c-172 -101 -170 -98 -170 -292 0 -193 -1 -191 166 -289
173 -102 176 -102 349 0 166 98 165 96 165 287 0 204 5 197 -206 315 -69 39
-111 57 -135 57 -26 0 -71 -21 -169 -78z m269 -134 l91 -52 0 -106 0 -106 -91
-52 c-50 -29 -95 -52 -99 -52 -5 0 -49 24 -99 53 l-91 52 0 105 0 106 88 51
c48 28 92 52 98 52 7 1 53 -22 103 -51z"/>
<path d="M1185 547 c-66 -32 -113 -80 -143 -146 -21 -46 -24 -64 -20 -130 7
-113 55 -188 152 -239 67 -35 177 -38 247 -6 58 27 116 85 143 143 32 70 29
180 -6 247 -52 99 -127 146 -243 151 -69 4 -87 1 -130 -20z m181 -143 c45 -21
79 -90 69 -141 -9 -48 -60 -99 -108 -108 -51 -10 -120 24 -141 69 -58 122 58
238 180 180z"/>
<path d="M3717 556 c-65 -23 -119 -73 -155 -141 -35 -66 -37 -176 -6 -246 27
-58 85 -116 143 -143 70 -32 180 -29 247 6 97 51 145 126 152 239 4 67 1 84
-21 130 -50 109 -143 169 -257 168 -36 0 -82 -6 -103 -13z m164 -151 c95 -50
90 -194 -9 -237 -57 -26 -105 -17 -148 26 -45 45 -52 92 -25 150 34 69 113 96
182 61z"/>
</g>
</svg>
