<svg xmlns="http://www.w3.org/2000/svg" width="512" height="512" viewBox="0 0 512 512" version="1.1"><path d="M 167.859 50.158 C 161.457 53.870, 160 57.919, 160 72 C 160 85.427, 161.241 89.342, 166.818 93.500 C 170.572 96.300, 181.404 96.333, 185.057 93.557 C 191.136 88.936, 191.500 87.718, 191.500 72 C 191.500 59.061, 191.285 57.211, 189.500 54.818 C 184.572 48.208, 174.835 46.112, 167.859 50.158 M 65.922 92.274 C 57.622 97.867, 55.613 106.863, 60.834 115.054 C 64.757 121.210, 76.100 131.548, 80.537 133.012 C 94.053 137.473, 106.582 122.870, 100.100 110.210 C 97.863 105.841, 85.889 94.021, 81.300 91.652 C 76.658 89.256, 70.001 89.525, 65.922 92.274 M 270.500 91.874 C 268.850 92.901, 263.853 97.511, 259.397 102.120 C 250.494 111.326, 249.042 114.730, 250.967 121.877 C 252.296 126.812, 258.558 132.639, 263.537 133.573 C 269.794 134.747, 274.445 132.551, 282.984 124.393 C 291.765 116.003, 294 112.221, 294 105.747 C 294 94.189, 280.032 85.943, 270.500 91.874 M 157.113 113.545 C 127.167 120.041, 103.107 138.455, 89.820 165.045 C 82.241 180.211, 79.480 194.001, 80.274 212.727 C 81.071 231.508, 85.411 245.110, 95.610 260.785 C 106.179 277.029, 123.673 291.248, 141.313 297.933 C 143.696 298.835, 144.079 299.482, 143.813 302.153 C 143.523 305.081, 143.069 305.431, 137.500 307.019 C 115.326 313.342, 95.806 330.362, 86.441 351.539 C 79.935 366.249, 78.142 386.690, 81.959 402.614 C 89.103 432.411, 111.743 454.989, 141.584 462.076 C 149.631 463.987, 153.602 464.035, 283.681 463.771 L 417.500 463.500 426.288 460.743 C 459.377 450.364, 482.610 427.109, 492.684 394.288 C 495.150 386.253, 495.385 384.044, 495.432 368.500 C 495.486 350.344, 494.739 345.901, 489.292 332 C 477.616 302.204, 450.084 279.550, 418.065 273.393 C 413.975 272.606, 410.574 271.859, 410.506 271.731 C 410.439 271.604, 408.918 267.675, 407.127 263 C 392.901 225.865, 361.365 195.465, 324.127 182.989 C 309.739 178.169, 301.568 176.782, 283.658 176.121 L 266.815 175.500 264.383 169.724 C 252.368 141.199, 225.194 119.410, 194.162 113.417 C 184.989 111.646, 165.558 111.713, 157.113 113.545 M 23.859 194.158 C 14.040 199.851, 13.481 214.538, 22.818 221.500 C 25.211 223.285, 27.061 223.500, 40 223.500 C 55.718 223.500, 56.936 223.136, 61.557 217.057 C 64.333 213.404, 64.300 202.572, 61.500 198.818 C 57.323 193.216, 53.443 191.998, 39.864 192.023 C 29.124 192.043, 27.022 192.323, 23.859 194.158 M 79.166 283.526 C 74.759 285.440, 62.300 297.522, 59.900 302.210 C 54.513 312.731, 61.068 324.628, 72.878 325.762 C 79.322 326.382, 84.074 323.731, 92.776 314.660 C 102.303 304.731, 103.967 299.033, 99.697 290.960 C 95.717 283.432, 86.809 280.207, 79.166 283.526" stroke="none" fill="#000000" fill-rule="evenodd"/></svg>