<?xml version="1.0" standalone="no"?>
<!DOCTYPE svg PUBLIC "-//W3C//DTD SVG 20010904//EN"
 "http://www.w3.org/TR/2001/REC-SVG-20010904/DTD/svg10.dtd">
<svg version="1.0" xmlns="http://www.w3.org/2000/svg"
 width="512.000000pt" height="512.000000pt" viewBox="0 0 512.000000 512.000000"
 preserveAspectRatio="xMidYMid meet">

<g transform="translate(0.000000,512.000000) scale(0.100000,-0.100000)"
fill="#000000" stroke="none">
<path d="M2724 5070 c-446 -47 -861 -297 -1107 -667 l-67 -99 -92 24 c-139 37
-373 42 -518 12 -481 -99 -853 -487 -925 -967 -77 -512 183 -1003 651 -1230
61 -29 156 -66 210 -81 l99 -27 1133 -3 1133 -3 29 30 c32 32 40 83 19 123
-26 49 -3 48 -1150 48 -1037 0 -1074 1 -1171 20 -177 36 -304 97 -432 205
-124 106 -240 296 -288 475 -20 74 -23 109 -23 265 0 213 16 288 95 450 133
275 365 448 672 501 136 24 323 15 442 -20 287 -86 528 -303 633 -569 44 -111
113 -139 180 -72 31 31 35 40 30 74 -6 50 -74 194 -134 284 -83 126 -247 283
-360 348 -24 13 -43 27 -43 31 0 24 122 180 210 268 196 196 419 313 695 366
122 23 340 23 465 0 551 -100 979 -530 1075 -1082 10 -56 16 -108 13 -116 -4
-8 -32 -19 -66 -25 -115 -22 -280 -104 -301 -150 -20 -43 -13 -82 18 -114 41
-41 77 -38 185 15 103 50 166 66 265 66 226 0 462 -147 560 -349 47 -98 66
-196 57 -297 -15 -167 -66 -286 -165 -385 -141 -141 -364 -209 -648 -196 -104
4 -125 2 -150 -13 -61 -37 -65 -127 -8 -164 35 -23 435 -23 537 0 298 68 532
294 614 594 25 91 25 299 0 395 -25 98 -95 239 -156 313 -110 134 -281 243
-436 277 -44 10 -85 19 -91 21 -7 2 -13 18 -13 37 0 68 -33 225 -71 340 -226
685 -895 1122 -1605 1047z"/>
<path d="M3554 2211 c-89 -54 -53 -181 51 -181 51 0 95 44 95 95 0 49 -15 74
-55 91 -44 18 -54 18 -91 -5z"/>
<path d="M1035 1823 c-35 -9 -54 -33 -151 -195 -113 -188 -128 -225 -122 -316
4 -79 32 -143 86 -196 65 -66 104 -81 212 -81 108 0 147 15 212 81 78 77 109
207 75 308 -22 63 -203 363 -230 380 -29 18 -57 25 -82 19z m79 -381 c57 -97
61 -139 17 -183 -41 -41 -101 -41 -142 0 -44 44 -40 86 17 183 25 43 50 78 54
78 4 0 29 -35 54 -78z"/>
<path d="M2535 1823 c-35 -9 -54 -33 -151 -195 -113 -188 -128 -225 -122 -316
4 -79 32 -143 86 -196 65 -66 104 -81 212 -81 108 0 147 15 212 81 78 77 109
207 75 308 -22 63 -203 363 -230 380 -29 18 -57 25 -82 19z m79 -381 c57 -97
61 -139 17 -183 -41 -41 -101 -41 -142 0 -44 44 -40 86 17 183 25 43 50 78 54
78 4 0 29 -35 54 -78z"/>
<path d="M4035 1823 c-35 -9 -54 -33 -151 -195 -113 -188 -128 -225 -122 -316
4 -79 32 -143 86 -196 65 -66 104 -81 212 -81 108 0 147 15 212 81 78 77 109
207 75 308 -22 63 -203 363 -230 380 -29 18 -57 25 -82 19z m79 -381 c57 -97
61 -139 17 -183 -41 -41 -101 -41 -142 0 -44 44 -40 86 17 183 25 43 50 78 54
78 4 0 29 -35 54 -78z"/>
<path d="M1758 829 c-18 -10 -195 -298 -228 -371 -13 -29 -20 -65 -20 -114 0
-59 5 -81 30 -132 56 -112 145 -166 270 -166 125 0 214 54 270 166 25 51 30
73 30 132 0 49 -7 85 -20 114 -35 78 -211 362 -230 372 -24 13 -80 12 -102 -1z
m105 -368 c64 -108 62 -172 -8 -206 -41 -19 -49 -19 -90 0 -70 34 -72 98 -8
206 26 43 50 79 53 79 3 0 27 -36 53 -79z"/>
<path d="M3241 813 c-42 -43 -210 -331 -228 -392 -28 -98 -1 -201 76 -284 111
-120 305 -124 424 -9 78 75 113 189 88 288 -14 56 -204 377 -239 405 -36 28
-88 25 -121 -8z m124 -363 c40 -69 47 -86 42 -117 -12 -72 -83 -111 -146 -78
-37 19 -66 73 -58 106 10 38 97 180 106 174 5 -3 30 -41 56 -85z"/>
</g>
</svg>
