<svg xmlns="http://www.w3.org/2000/svg" width="512" height="512" viewBox="0 0 512 512" version="1.1"><path d="M 248 8.653 C 213.102 15.536, 185.872 35.395, 171.131 64.716 L 168.006 70.931 163.661 69.069 C 149.712 63.090, 128.321 62.379, 113.500 67.404 C 86.027 76.717, 66.144 101.652, 64.253 129.164 L 63.726 136.829 60.119 137.506 C 58.135 137.878, 53.835 139.270, 50.563 140.600 C 32.443 147.962, 18.147 163.054, 11.188 182.165 C 8.754 188.851, 8.517 190.784, 8.517 204 C 8.517 217.216, 8.754 219.149, 11.188 225.835 C 15.118 236.629, 19.592 243.592, 28 252 C 36.401 260.401, 43.357 264.873, 54.165 268.821 L 61.500 271.500 257 271.500 L 452.500 271.500 459.500 269.295 C 478.609 263.275, 495.208 246.670, 501.282 227.500 C 504.524 217.267, 504.485 197.349, 501.203 187.853 C 494.802 169.332, 480.190 154.448, 461.242 147.148 C 455.101 144.783, 453.135 144.542, 439.190 144.447 L 423.881 144.343 420.211 136.921 C 415.517 127.430, 402.488 113.935, 393 108.738 C 386.206 105.016, 374.484 101, 370.414 101 C 368.739 101, 367.916 100.336, 367.625 98.750 C 365.109 85.043, 362.269 75.974, 357.468 66.316 C 346.134 43.517, 330.602 28.290, 307.623 17.449 C 293.083 10.589, 285.144 8.858, 266.500 8.482 C 257.700 8.305, 249.375 8.382, 248 8.653 M 82.174 290.314 C 80.186 292.431, 79.998 293.693, 79.973 305.064 L 79.946 317.500 76.611 313.916 C 74.189 311.312, 73.079 308.987, 72.553 305.416 C 71.618 299.063, 68.836 296, 64 296 C 61.413 296, 59.674 296.718, 58.034 298.463 C 55.971 300.660, 55.776 301.621, 56.236 307.350 C 57.139 318.600, 65.022 329.344, 75.550 333.673 L 79.993 335.500 79.996 341.971 L 80 348.442 73.723 342.221 C 68.395 336.941, 66.910 336, 63.897 336 C 59.288 336, 56 339.347, 56 344.038 C 56 346.878, 57.037 348.493, 62.221 353.723 L 68.442 360 61.971 359.996 L 55.500 359.993 53.673 355.550 C 49.344 345.022, 38.600 337.139, 27.350 336.236 C 21.621 335.776, 20.660 335.971, 18.463 338.034 C 16.718 339.674, 16 341.413, 16 344 C 16 348.836, 19.063 351.618, 25.416 352.553 C 28.987 353.079, 31.312 354.189, 33.916 356.611 L 37.500 359.946 24.924 359.973 C 13.090 359.998, 12.220 360.136, 10.174 362.314 C 7.195 365.486, 7.261 370.957, 10.314 373.826 C 12.431 375.814, 13.693 376.002, 25.064 376.027 L 37.500 376.054 33.916 379.389 C 31.312 381.811, 28.987 382.921, 25.416 383.447 C 19.063 384.382, 16 387.164, 16 392 C 16 394.587, 16.718 396.326, 18.463 397.966 C 20.660 400.029, 21.621 400.224, 27.350 399.764 C 38.600 398.861, 49.344 390.978, 53.673 380.450 L 55.500 376.007 61.971 376.004 L 68.442 376 62.221 382.277 C 56.941 387.605, 56 389.090, 56 392.103 C 56 396.712, 59.347 400, 64.038 400 C 66.878 400, 68.493 398.963, 73.723 393.779 L 80 387.558 79.996 394.029 L 79.993 400.500 75.550 402.327 C 65.022 406.656, 57.139 417.400, 56.236 428.650 C 55.776 434.379, 55.971 435.340, 58.034 437.537 C 59.674 439.282, 61.413 440, 64 440 C 68.794 440, 71.554 436.950, 72.457 430.653 C 72.965 427.111, 74.067 424.821, 76.549 422.153 L 79.946 418.500 79.973 431.076 C 79.998 442.910, 80.136 443.780, 82.314 445.826 C 85.486 448.805, 90.957 448.739, 93.826 445.686 C 95.814 443.569, 96.002 442.307, 96.027 430.936 L 96.054 418.500 99.389 422.084 C 101.811 424.688, 102.921 427.013, 103.447 430.584 C 104.382 436.937, 107.164 440, 112 440 C 114.587 440, 116.326 439.282, 117.966 437.537 C 120.029 435.340, 120.224 434.379, 119.764 428.650 C 118.861 417.400, 110.978 406.656, 100.450 402.327 L 96.007 400.500 96.004 394.029 L 96 387.558 102.277 393.779 C 107.605 399.059, 109.090 400, 112.103 400 C 116.712 400, 120 396.653, 120 391.962 C 120 389.122, 118.963 387.507, 113.779 382.277 L 107.558 376 114.029 376.004 L 120.500 376.007 122.327 380.450 C 126.656 390.978, 137.400 398.861, 148.650 399.764 C 154.379 400.224, 155.340 400.029, 157.537 397.966 C 159.282 396.326, 160 394.587, 160 392 C 160 387.164, 156.937 384.382, 150.584 383.447 C 147.013 382.921, 144.688 381.811, 142.084 379.389 L 138.500 376.054 151.076 376.027 C 162.910 376.002, 163.780 375.864, 165.826 373.686 C 168.805 370.514, 168.739 365.043, 165.686 362.174 C 163.569 360.186, 162.307 359.998, 150.936 359.973 L 138.500 359.946 142.084 356.611 C 144.688 354.189, 147.013 353.079, 150.584 352.553 C 156.937 351.618, 160 348.836, 160 344 C 160 341.413, 159.282 339.674, 157.537 338.034 C 155.340 335.971, 154.379 335.776, 148.650 336.236 C 137.400 337.139, 126.656 345.022, 122.327 355.550 L 120.500 359.993 114.029 359.996 L 107.558 360 113.779 353.723 C 120.966 346.471, 121.876 342.785, 117.545 338.455 C 113.215 334.124, 109.529 335.034, 102.277 342.221 L 96 348.442 96.004 341.971 L 96.007 335.500 100.450 333.673 C 110.978 329.344, 118.861 318.600, 119.764 307.350 C 120.224 301.621, 120.029 300.660, 117.966 298.463 C 116.326 296.718, 114.587 296, 112 296 C 107.164 296, 104.382 299.063, 103.447 305.416 C 102.921 308.987, 101.811 311.312, 99.389 313.916 L 96.054 317.500 96.027 304.924 C 96.002 293.090, 95.864 292.220, 93.686 290.174 C 90.514 287.195, 85.043 287.261, 82.174 290.314 M 418.174 290.314 C 416.186 292.431, 415.998 293.693, 415.973 305.064 L 415.946 317.500 412.611 313.916 C 410.189 311.312, 409.079 308.987, 408.553 305.416 C 407.618 299.063, 404.836 296, 400 296 C 397.413 296, 395.674 296.718, 394.034 298.463 C 391.971 300.660, 391.776 301.621, 392.236 307.350 C 393.139 318.600, 401.022 329.344, 411.550 333.673 L 415.993 335.500 415.996 341.971 L 416 348.442 409.723 342.221 C 402.471 335.034, 398.785 334.124, 394.455 338.455 C 390.124 342.785, 391.034 346.471, 398.221 353.723 L 404.442 360 397.971 359.996 L 391.500 359.993 389.673 355.550 C 385.344 345.022, 374.600 337.139, 363.350 336.236 C 357.621 335.776, 356.660 335.971, 354.463 338.034 C 352.718 339.674, 352 341.413, 352 344 C 352 348.836, 355.063 351.618, 361.416 352.553 C 364.987 353.079, 367.312 354.189, 369.916 356.611 L 373.500 359.946 360.924 359.973 C 349.090 359.998, 348.220 360.136, 346.174 362.314 C 343.195 365.486, 343.261 370.957, 346.314 373.826 C 348.431 375.814, 349.693 376.002, 361.064 376.027 L 373.500 376.054 369.916 379.389 C 367.312 381.811, 364.987 382.921, 361.416 383.447 C 355.063 384.382, 352 387.164, 352 392 C 352 394.587, 352.718 396.326, 354.463 397.966 C 356.660 400.029, 357.621 400.224, 363.350 399.764 C 374.600 398.861, 385.344 390.978, 389.673 380.450 L 391.500 376.007 397.971 376.004 L 404.442 376 398.221 382.277 C 391.034 389.529, 390.124 393.215, 394.455 397.545 C 398.785 401.876, 402.471 400.966, 409.723 393.779 L 416 387.558 415.996 394.029 L 415.993 400.500 411.550 402.327 C 401.022 406.656, 393.139 417.400, 392.236 428.650 C 391.776 434.379, 391.971 435.340, 394.034 437.537 C 395.674 439.282, 397.413 440, 400 440 C 404.794 440, 407.554 436.950, 408.457 430.653 C 408.965 427.111, 410.067 424.821, 412.549 422.153 L 415.946 418.500 415.973 431.076 C 415.998 442.910, 416.136 443.780, 418.314 445.826 C 421.486 448.805, 426.957 448.739, 429.826 445.686 C 431.814 443.569, 432.002 442.307, 432.027 430.936 L 432.054 418.500 435.389 422.084 C 437.811 424.688, 438.921 427.013, 439.447 430.584 C 440.382 436.937, 443.164 440, 448 440 C 450.587 440, 452.326 439.282, 453.966 437.537 C 456.029 435.340, 456.224 434.379, 455.764 428.650 C 454.861 417.400, 446.978 406.656, 436.450 402.327 L 432.007 400.500 432.004 394.029 L 432 387.558 438.277 393.779 C 443.605 399.059, 445.090 400, 448.103 400 C 452.712 400, 456 396.653, 456 391.962 C 456 389.122, 454.963 387.507, 449.779 382.277 L 443.558 376 450.029 376.004 L 456.500 376.007 458.327 380.450 C 462.656 390.978, 473.400 398.861, 484.650 399.764 C 490.379 400.224, 491.340 400.029, 493.537 397.966 C 495.282 396.326, 496 394.587, 496 392 C 496 387.164, 492.937 384.382, 486.584 383.447 C 483.013 382.921, 480.688 381.811, 478.084 379.389 L 474.500 376.054 487.076 376.027 C 498.910 376.002, 499.780 375.864, 501.826 373.686 C 504.805 370.514, 504.739 365.043, 501.686 362.174 C 499.569 360.186, 498.307 359.998, 486.936 359.973 L 474.500 359.946 478.084 356.611 C 480.688 354.189, 483.013 353.079, 486.584 352.553 C 492.937 351.618, 496 348.836, 496 344 C 496 341.413, 495.282 339.674, 493.537 338.034 C 491.340 335.971, 490.379 335.776, 484.650 336.236 C 473.400 337.139, 462.656 345.022, 458.327 355.550 L 456.500 359.993 450.029 359.996 L 443.558 360 449.779 353.723 C 456.966 346.471, 457.876 342.785, 453.545 338.455 C 449.215 334.124, 445.529 335.034, 438.277 342.221 L 432 348.442 432.004 341.971 L 432.007 335.500 436.450 333.673 C 446.978 329.344, 454.861 318.600, 455.764 307.350 C 456.224 301.621, 456.029 300.660, 453.966 298.463 C 452.326 296.718, 450.587 296, 448 296 C 443.164 296, 440.382 299.063, 439.447 305.416 C 438.921 308.987, 437.811 311.312, 435.389 313.916 L 432.054 317.500 432.027 304.924 C 432.002 293.090, 431.864 292.220, 429.686 290.174 C 426.514 287.195, 421.043 287.261, 418.174 290.314 M 250.174 346.314 C 248.186 348.431, 247.998 349.693, 247.973 361.064 L 247.946 373.500 244.611 369.916 C 242.189 367.312, 241.079 364.987, 240.553 361.416 C 239.618 355.063, 236.836 352, 232 352 C 229.413 352, 227.674 352.718, 226.034 354.463 C 223.971 356.660, 223.776 357.621, 224.236 363.350 C 225.139 374.600, 233.022 385.344, 243.550 389.673 L 247.993 391.500 247.996 397.971 L 248 404.442 241.723 398.221 C 234.471 391.034, 230.785 390.124, 226.455 394.455 C 222.124 398.785, 223.034 402.471, 230.221 409.723 L 236.442 416 229.971 415.996 L 223.500 415.993 221.673 411.550 C 217.344 401.022, 206.600 393.139, 195.350 392.236 C 189.621 391.776, 188.660 391.971, 186.463 394.034 C 184.718 395.674, 184 397.413, 184 400 C 184 404.836, 187.063 407.618, 193.416 408.553 C 196.987 409.079, 199.312 410.189, 201.916 412.611 L 205.500 415.946 192.924 415.973 C 181.090 415.998, 180.220 416.136, 178.174 418.314 C 175.195 421.486, 175.261 426.957, 178.314 429.826 C 180.431 431.814, 181.693 432.002, 193.064 432.027 L 205.500 432.054 201.916 435.389 C 199.312 437.811, 196.987 438.921, 193.416 439.447 C 187.063 440.382, 184 443.164, 184 448 C 184 450.587, 184.718 452.326, 186.463 453.966 C 188.660 456.029, 189.621 456.224, 195.350 455.764 C 206.600 454.861, 217.344 446.978, 221.673 436.450 L 223.500 432.007 229.971 432.004 L 236.442 432 230.221 438.277 C 223.034 445.529, 222.124 449.215, 226.455 453.545 C 230.785 457.876, 234.471 456.966, 241.723 449.779 L 248 443.558 247.996 450.029 L 247.993 456.500 243.550 458.327 C 233.022 462.656, 225.139 473.400, 224.236 484.650 C 223.776 490.379, 223.971 491.340, 226.034 493.537 C 227.674 495.282, 229.413 496, 232 496 C 236.794 496, 239.554 492.950, 240.457 486.653 C 240.965 483.111, 242.067 480.821, 244.549 478.153 L 247.946 474.500 247.973 487.076 C 247.998 498.910, 248.136 499.780, 250.314 501.826 C 253.486 504.805, 258.957 504.739, 261.826 501.686 C 263.814 499.569, 264.002 498.307, 264.027 486.936 L 264.054 474.500 267.389 478.084 C 269.811 480.688, 270.921 483.013, 271.447 486.584 C 272.382 492.937, 275.164 496, 280 496 C 282.587 496, 284.326 495.282, 285.966 493.537 C 288.029 491.340, 288.224 490.379, 287.764 484.650 C 286.861 473.400, 278.978 462.656, 268.450 458.327 L 264.007 456.500 264.004 450.029 L 264 443.558 270.277 449.779 C 275.605 455.059, 277.090 456, 280.103 456 C 284.712 456, 288 452.653, 288 447.962 C 288 445.122, 286.963 443.507, 281.779 438.277 L 275.558 432 282.029 432.004 L 288.500 432.007 290.327 436.450 C 294.656 446.978, 305.400 454.861, 316.650 455.764 C 322.379 456.224, 323.340 456.029, 325.537 453.966 C 327.282 452.326, 328 450.587, 328 448 C 328 443.164, 324.937 440.382, 318.584 439.447 C 315.013 438.921, 312.688 437.811, 310.084 435.389 L 306.500 432.054 319.076 432.027 C 330.910 432.002, 331.780 431.864, 333.826 429.686 C 336.805 426.514, 336.739 421.043, 333.686 418.174 C 331.569 416.186, 330.307 415.998, 318.936 415.973 L 306.500 415.946 310.084 412.611 C 312.688 410.189, 315.013 409.079, 318.584 408.553 C 324.937 407.618, 328 404.836, 328 400 C 328 397.413, 327.282 395.674, 325.537 394.034 C 323.340 391.971, 322.379 391.776, 316.650 392.236 C 305.400 393.139, 294.656 401.022, 290.327 411.550 L 288.500 415.993 282.029 415.996 L 275.558 416 281.779 409.723 C 288.966 402.471, 289.876 398.785, 285.545 394.455 C 281.215 390.124, 277.529 391.034, 270.277 398.221 L 264 404.442 264.004 397.971 L 264.007 391.500 268.450 389.673 C 278.978 385.344, 286.861 374.600, 287.764 363.350 C 288.224 357.621, 288.029 356.660, 285.966 354.463 C 284.326 352.718, 282.587 352, 280 352 C 275.164 352, 272.382 355.063, 271.447 361.416 C 270.921 364.987, 269.811 367.312, 267.389 369.916 L 264.054 373.500 264.027 360.924 C 264.002 349.090, 263.864 348.220, 261.686 346.174 C 258.514 343.195, 253.043 343.261, 250.174 346.314" stroke="none" fill="#643c15" fill-rule="evenodd"/></svg>