<?xml version="1.0" standalone="no"?>
<!DOCTYPE svg PUBLIC "-//W3C//DTD SVG 20010904//EN"
 "http://www.w3.org/TR/2001/REC-SVG-20010904/DTD/svg10.dtd">
<svg version="1.0" xmlns="http://www.w3.org/2000/svg"
 width="512.000000pt" height="512.000000pt" viewBox="0 0 512.000000 512.000000"
 preserveAspectRatio="xMidYMid meet">

<g transform="translate(0.000000,512.000000) scale(0.100000,-0.100000)"
fill="#000000" stroke="none">
<path d="M2524 4788 c-12 -5 -27 -21 -33 -34 -15 -34 -15 -514 0 -548 26 -55
112 -55 138 0 15 34 15 514 0 547 -11 24 -48 48 -72 46 -7 0 -22 -5 -33 -11z"/>
<path d="M1510 4350 c-42 -42 -38 -60 51 -217 95 -169 115 -193 159 -193 37 0
80 39 80 71 0 28 -177 337 -201 349 -29 16 -68 11 -89 -10z"/>
<path d="M3519 4360 c-23 -13 -199 -322 -199 -349 0 -32 43 -71 80 -71 44 0
64 24 159 193 89 157 93 175 51 217 -21 21 -64 26 -91 10z"/>
<path d="M653 3708 c-12 -6 -27 -23 -34 -39 -24 -60 -8 -74 240 -217 125 -73
238 -132 250 -132 56 0 91 84 54 129 -22 25 -451 271 -472 270 -9 0 -26 -5
-38 -11z"/>
<path d="M4234 3617 c-268 -154 -274 -158 -284 -177 -26 -48 11 -120 61 -120
12 0 125 59 250 132 248 143 264 157 240 217 -12 27 -47 51 -75 51 -7 0 -93
-46 -192 -103z"/>
<path d="M2388 3664 c-430 -66 -780 -376 -902 -797 -171 -589 174 -1209 767
-1381 388 -113 809 -3 1098 286 285 285 395 710 283 1095 -157 542 -691 884
-1246 797z m335 -159 c196 -34 366 -123 508 -264 97 -97 130 -143 188 -258
132 -261 131 -583 -1 -848 -302 -603 -1105 -717 -1563 -223 -354 383 -335 979
43 1339 222 213 526 306 825 254z"/>
<path d="M2353 3428 c-12 -6 -27 -23 -34 -39 -32 -78 67 -144 126 -84 65 64
-8 163 -92 123z"/>
<path d="M2105 3311 c-168 -99 -318 -287 -381 -480 -15 -48 -16 -57 -3 -80 8
-14 26 -32 41 -40 24 -14 30 -14 61 1 29 14 38 27 55 78 49 144 162 290 288
371 69 45 91 80 75 120 -22 59 -69 69 -136 30z"/>
<path d="M523 2628 c-12 -6 -27 -23 -34 -39 -15 -37 2 -82 37 -98 34 -15 354
-15 388 0 55 26 55 112 0 138 -32 14 -361 14 -391 -1z"/>
<path d="M4203 2628 c-12 -6 -27 -23 -34 -39 -15 -37 2 -82 37 -98 34 -15 354
-15 388 0 55 26 55 112 0 138 -32 14 -361 14 -391 -1z"/>
<path d="M858 1668 c-247 -143 -263 -158 -239 -217 12 -27 47 -51 75 -51 20 0
449 248 469 271 37 45 2 129 -55 129 -13 0 -125 -59 -250 -132z"/>
<path d="M3965 1775 c-26 -25 -32 -63 -15 -95 5 -10 99 -70 208 -134 263 -152
263 -152 300 -137 40 17 59 61 43 99 -10 23 -59 56 -240 160 -125 73 -238 132
-250 132 -12 0 -33 -11 -46 -25z"/>
<path d="M1667 1158 c-12 -13 -60 -89 -106 -171 -89 -157 -93 -175 -51 -217
21 -21 60 -26 89 -10 24 12 201 321 201 349 0 12 -11 33 -25 46 -31 32 -78 33
-108 3z"/>
<path d="M3345 1155 c-14 -13 -25 -34 -25 -46 0 -28 177 -337 201 -349 46 -25
103 0 114 50 6 26 -6 53 -76 178 -46 81 -94 157 -106 170 -30 30 -77 29 -108
-3z"/>
<path d="M2524 948 c-40 -19 -44 -48 -44 -308 0 -269 4 -291 51 -311 37 -15
82 2 98 37 15 34 15 514 0 547 -11 24 -48 48 -72 46 -7 0 -22 -5 -33 -11z"/>
</g>
</svg>
