<?xml version="1.0" standalone="no"?>
<!DOCTYPE svg PUBLIC "-//W3C//DTD SVG 20010904//EN"
 "http://www.w3.org/TR/2001/REC-SVG-20010904/DTD/svg10.dtd">
<svg version="1.0" xmlns="http://www.w3.org/2000/svg"
 width="512.000000pt" height="512.000000pt" viewBox="0 0 512.000000 512.000000"
 preserveAspectRatio="xMidYMid meet">

<g transform="translate(0.000000,512.000000) scale(0.100000,-0.100000)"
fill="#000000" stroke="none">
<path d="M2705 4708 c-187 -20 -411 -93 -570 -185 -199 -114 -398 -298 -518
-479 l-68 -102 -47 15 c-153 47 -382 59 -543 29 -289 -54 -549 -217 -728 -456
-246 -329 -299 -775 -136 -1153 154 -358 492 -626 873 -692 64 -11 175 -15
463 -15 209 0 379 -3 379 -7 0 -5 -9 -21 -20 -38 -29 -44 -26 -88 9 -127 l29
-33 300 -5 300 -5 -175 -474 c-111 -303 -172 -482 -169 -496 16 -62 81 -98
137 -75 21 9 120 138 386 504 196 270 401 551 455 623 l98 133 269 0 c266 0
270 0 296 23 17 14 28 36 32 63 5 36 1 46 -25 75 l-30 34 -197 3 -196 3 21 33
c22 36 26 86 10 117 -25 45 -51 49 -361 49 -273 0 -291 1 -284 18 65 168 345
935 345 946 0 72 -98 122 -157 81 -13 -9 -224 -293 -470 -631 l-448 -615 -480
3 -480 4 -98 26 c-331 90 -566 329 -659 668 -20 74 -23 108 -23 265 0 212 15
285 94 450 157 328 468 515 856 515 161 0 284 -29 425 -100 210 -106 377 -284
462 -492 24 -60 41 -86 63 -100 39 -24 90 -17 124 17 43 42 36 91 -31 225
-105 210 -219 334 -461 502 -18 13 -16 18 34 93 71 107 242 276 353 349 226
149 463 219 736 219 364 0 679 -130 935 -387 154 -155 259 -325 323 -521 34
-102 68 -284 59 -309 -4 -9 -17 -16 -31 -16 -80 0 -307 -103 -331 -151 -24
-45 -19 -87 14 -120 41 -40 80 -38 183 11 112 53 183 70 298 70 157 -1 290
-59 399 -176 116 -125 171 -257 179 -424 8 -189 -38 -314 -161 -434 -78 -77
-148 -118 -270 -161 -87 -31 -117 -59 -117 -111 0 -40 40 -90 78 -99 16 -3 56
3 97 16 280 86 487 300 561 584 25 97 25 293 0 390 -39 148 -123 292 -227 390
-124 117 -243 176 -440 219 -24 5 -27 11 -33 77 -18 196 -93 421 -200 602
-308 521 -891 813 -1491 745z m-162 -2445 c-111 -306 -108 -294 -89 -335 10
-20 25 -40 34 -45 9 -4 140 -10 290 -13 l273 -5 -253 -347 c-138 -191 -253
-346 -255 -344 -2 2 23 75 55 162 88 236 86 228 68 266 -29 61 -35 63 -327 68
l-266 5 250 343 c137 188 251 342 253 342 2 0 -13 -44 -33 -97z"/>
<path d="M4024 1861 c-12 -5 -31 -22 -44 -38 -17 -22 -21 -36 -17 -68 16 -115
178 -115 194 1 4 35 1 46 -23 73 -31 33 -76 46 -110 32z"/>
<path d="M1030 1463 c-8 -3 -23 -13 -33 -22 -26 -22 -204 -321 -222 -372 -20
-55 -19 -144 2 -205 23 -69 110 -155 182 -179 70 -23 179 -17 237 13 56 28
129 112 148 169 20 58 21 148 1 202 -18 51 -196 350 -222 374 -21 19 -70 29
-93 20z m84 -381 c57 -97 61 -139 17 -183 -63 -62 -171 -20 -171 67 0 26 14
60 46 116 25 43 50 78 54 78 4 0 29 -35 54 -78z"/>
<path d="M4030 1463 c-8 -3 -23 -13 -33 -22 -26 -22 -204 -321 -222 -372 -20
-55 -19 -144 2 -205 23 -69 110 -155 182 -179 70 -23 179 -17 237 13 56 28
129 112 148 169 20 58 21 148 1 202 -18 51 -196 350 -222 374 -21 19 -70 29
-93 20z m84 -381 c57 -97 61 -139 17 -183 -63 -62 -171 -20 -171 67 0 26 14
60 46 116 25 43 50 78 54 78 4 0 29 -35 54 -78z"/>
</g>
</svg>
