<svg xmlns="http://www.w3.org/2000/svg" width="512" height="512" viewBox="0 0 512 512" version="1.1"><path d="M 212.500 1.573 C 65.870 13.796, -13.107 63.403, 1.138 134.333 L 2.276 140 10.888 140.008 C 15.625 140.012, 101.737 140.124, 202.250 140.258 C 302.762 140.391, 385 140.238, 385 139.917 C 385 139.596, 385.584 139.333, 386.298 139.333 C 393.640 139.333, 413.283 124.247, 418.013 114.975 C 435.359 80.973, 373.017 56.066, 270.424 56.010 C 249.861 55.999, 248 56.673, 248 64.140 C 248 71.347, 249.341 71.755, 276.500 72.818 L 300.500 73.758 311 77.468 C 344.390 89.265, 347.443 99.905, 321.388 113.666 C 268.286 141.714, 155.132 140.001, 26 109.197 C 16.926 107.032, 16.759 106.165, 22.975 93.500 C 43.975 50.708, 122.866 22.503, 236.559 17.140 C 303.047 14.004, 400.640 31.514, 447.500 54.988 L 460.500 61.500 461.812 66.500 C 467.506 88.194, 459.461 111.541, 439.071 132.494 L 431.814 139.952 469.291 140.226 L 506.768 140.500 508.884 133.929 C 510.048 130.315, 511.059 126.490, 511.132 125.429 C 511.204 124.368, 511.595 125.075, 512 127 C 512.506 129.403, 512.778 127.117, 512.868 119.708 C 513.366 78.884, 488.419 51.078, 432.500 30.128 C 373.645 8.079, 280.105 -4.062, 212.500 1.573 M 202.174 58.314 C 194.812 66.151, 200.780 72, 216.140 72 C 231.232 72, 237.544 65.557, 229.686 58.174 C 226.072 54.779, 205.397 54.884, 202.174 58.314 M 142.500 67.885 C 52.998 93.983, 99.082 132.890, 212.477 126.966 C 262.170 124.369, 281.507 117.280, 269.545 106.043 C 266.752 103.419, 266.742 103.419, 244.015 106.907 C 201.523 113.429, 149.959 110.760, 117.750 100.371 C 108.788 97.481, 124.451 89.776, 155.168 81.966 C 165.066 79.449, 168 77.171, 168 72 C 168 63.151, 162.036 62.189, 142.500 67.885 M 0.382 119.500 C 0.384 126.100, 0.546 128.670, 0.741 125.211 C 0.937 121.752, 0.936 116.352, 0.738 113.211 C 0.540 110.070, 0.380 112.900, 0.382 119.500 M 430 140.500 C 430 140.775, 430.225 141, 430.500 141 C 430.775 141, 431 140.775, 431 140.500 C 431 140.225, 430.775 140, 430.500 140 C 430.225 140, 430 140.225, 430 140.500 M 35 143.500 C 35 143.775, 35.225 144, 35.500 144 C 35.775 144, 36 143.775, 36 143.500 C 36 143.225, 35.775 143, 35.500 143 C 35.225 143, 35 143.225, 35 143.500" stroke="none" fill="#a0e0fc" fill-rule="evenodd"/><path d="M 232 133.500 C 232 133.775, 232.225 134, 232.500 134 C 232.775 134, 233 133.775, 233 133.500 C 233 133.225, 232.775 133, 232.500 133 C 232.225 133, 232 133.225, 232 133.500 M 508 135.500 C 508 135.775, 508.225 136, 508.500 136 C 508.775 136, 509 135.775, 509 135.500 C 509 135.225, 508.775 135, 508.500 135 C 508.225 135, 508 135.225, 508 135.500 M 391 137.500 C 391 137.775, 391.225 138, 391.500 138 C 391.775 138, 392 137.775, 392 137.500 C 392 137.225, 391.775 137, 391.500 137 C 391.225 137, 391 137.225, 391 137.500 M 431.300 139.332 C 429.709 141.980, 408.208 155.281, 395.500 161.477 C 305.814 205.206, 152.815 215.764, 60.194 184.615 C 44.803 179.439, 33.530 168.445, 23.771 149.093 L 19.438 140.500 11.086 140.207 L 2.733 139.915 3.370 143.098 C 10.812 180.309, 69.689 223.931, 124.245 232.655 C 127.019 233.099, 128.419 233.887, 128.762 235.197 C 133.531 253.434, 155.941 272.808, 180.625 280.034 C 184.609 281.200, 184.770 281.411, 185.336 286.193 C 187.103 301.113, 198.291 325.696, 206.782 333.318 C 208.805 335.133, 208.803 335.144, 204.985 343.318 C 196.518 361.444, 195.563 377.706, 202.175 391.154 C 205.151 397.207, 205.698 399.262, 205.281 402.825 C 199.940 448.495, 232.603 493.302, 282.640 508.943 C 301.236 514.756, 303.456 513.430, 304.314 496 C 306.005 461.655, 329.130 424.292, 353.197 417.020 C 390.454 405.764, 406.030 377.446, 394.859 341.278 L 392.778 334.542 396.139 332.091 C 418.268 315.954, 429.224 294.509, 429.405 266.975 L 429.500 252.450 433.317 247.250 C 441.244 236.450, 443.160 222.990, 438.653 209.766 L 436.358 203.031 445.429 198.418 C 474.187 183.793, 506 153.693, 506 141.110 C 506 140.317, 495.369 139.996, 468.750 139.985 C 444.331 139.975, 432.017 139.635, 433 139 C 433.918 138.407, 434.034 138.025, 433.300 138.015 C 432.640 138.007, 431.740 138.599, 431.300 139.332 M 385 139.500 C 385 139.775, 385.225 140, 385.500 140 C 385.775 140, 386 139.775, 386 139.500 C 386 139.225, 385.775 139, 385.500 139 C 385.225 139, 385 139.225, 385 139.500 M 22 140.500 C 22 140.775, 22.225 141, 22.500 141 C 22.775 141, 23 140.775, 23 140.500 C 23 140.225, 22.775 140, 22.500 140 C 22.225 140, 22 140.225, 22 140.500 M 25 140.907 C 47.312 153.495, 247.894 165.212, 311 157.613 C 340.438 154.069, 373.512 146.454, 382.705 141.105 C 383.957 140.377, 329.937 140.061, 204 140.061 C 104.725 140.061, 24.175 140.442, 25 140.907 M 474.293 202.250 C 473.064 203.596, 471.796 207.080, 471.139 210.921 C 469.557 220.163, 459.617 232, 453.438 232 C 448.549 232, 446.282 242.037, 450.314 245.826 C 460.700 255.582, 486.666 231.960, 487.839 211.688 C 488.449 201.141, 480.418 195.545, 474.293 202.250 M 398.500 217.732 C 331.129 240.908, 240.798 249.091, 161.776 239.175 C 145.681 237.156, 144.405 238.484, 157.287 243.847 C 224.311 271.749, 379.664 256.414, 409.438 218.957 C 415.168 211.748, 415.717 211.809, 398.500 217.732 M 94.174 254.314 C 89.777 258.995, 91.028 262.577, 100.271 271.772 C 111.373 282.817, 120 282.878, 120 271.913 C 120 262.242, 99.714 248.418, 94.174 254.314 M 392.500 273.181 C 356 287.608, 263.068 295.063, 214 287.500 C 208.775 286.695, 203.966 286.028, 203.314 286.018 C 200.402 285.974, 209.157 308.883, 215.149 316.988 C 241.349 352.425, 399 313.811, 399 271.956 C 399 270.719, 398.481 270.817, 392.500 273.181 M 114.174 290.314 C 109.137 295.676, 112.445 302.472, 126.740 316.130 C 148.184 336.617, 168 342.241, 168 327.841 C 168 323.460, 166.665 322.218, 156.486 317.123 C 147.319 312.535, 138.986 305.639, 130.055 295.250 C 122.925 286.956, 118.594 285.610, 114.174 290.314 M 458.174 314.314 C 452.478 320.378, 456.647 327.360, 466.635 328.481 C 478.315 329.792, 484.689 321.598, 477.545 314.455 C 473.978 310.887, 461.479 310.797, 458.174 314.314 M 492.400 318.436 C 486.260 321.093, 486.160 327.944, 492.185 333.126 L 496.401 336.753 493.438 339.716 C 487.703 345.451, 472.336 349.475, 450.101 351.064 C 434.487 352.180, 432 353.408, 432 360 C 432 367.360, 434.630 368.410, 451.228 367.677 C 492.907 365.834, 515.472 352.322, 511.574 331.541 C 509.984 323.065, 499.020 315.572, 492.400 318.436 M 370.500 346.068 C 326.156 367.200, 259.350 368.972, 226.818 349.880 C 221.273 346.626, 221.256 346.639, 217.616 356.810 C 208.750 381.583, 218.063 388.079, 266.643 391.009 C 329.075 394.773, 369.753 378.658, 374.581 348.250 C 374.952 345.913, 375.086 344.036, 374.878 344.081 C 374.670 344.125, 372.700 345.020, 370.500 346.068 M 90.174 354.314 C 84.636 360.210, 88.603 366.419, 106 379.089 C 142.924 405.979, 192 417.832, 192 399.860 C 192 394.427, 189.014 392.348, 180 391.507 C 155.521 389.220, 132.393 379.029, 109.404 360.399 C 97.832 351.021, 94.314 349.908, 90.174 354.314 M 222.545 417.750 C 224.467 436.174, 230.009 449.438, 238.865 456.808 C 264.188 477.882, 282.503 474.547, 291.472 447.230 C 295.343 435.438, 296.142 433.886, 301.114 428.493 L 305.002 424.274 285.251 423.726 C 259.180 423.002, 239.435 419.344, 226.797 412.896 C 221.676 410.284, 221.757 410.193, 222.545 417.750" stroke="none" fill="#4aaffb" fill-rule="evenodd"/></svg>